<?xml version="1.0" encoding="UTF-8"?>
<svg id="_レイヤー_2" data-name="レイヤー 2" xmlns="http://www.w3.org/2000/svg" viewBox="0 0 256 192.08">
  <defs>
    <style>
      .cls-1 {
        fill: #675831;
      }
    </style>
  </defs>
  <g id="_レイヤー_1-2" data-name="レイヤー 1">
    <g>
      <path class="cls-1" d="M256,11.02V28.02c-1.1,.65-2.33,1.14-3.29,1.96-38.36,33-76.7,66.03-115.04,99.06-7.15,6.16-12.2,6.16-19.35,0C84.28,99.7,50.25,70.35,16.16,41.06,10.92,36.55,5.39,32.36,0,28.02c0-5.67,0-11.34,0-17C3.03,2.59,9.09-.03,17.85,0,91.28,.23,164.71,.22,238.13,0c8.75-.03,14.81,2.62,17.87,11.02Z"/>
      <path class="cls-1" d="M0,181.06C0,169.73,0,158.39,0,147.05c16.45-16.96,32.91-33.91,49.5-51.01,2.29,1.91,4.35,3.59,6.37,5.32,16.44,14.1,32.82,28.27,49.32,42.3,11.42,9.71,26.53,11.6,39.07,4.51,4.58-2.59,8.6-6.26,12.64-9.7,16.49-14.03,32.88-28.17,49.56-42.47,16.64,17.14,33.09,34.09,49.55,51.05v34.01c-3.05,8.39-9.12,11.04-17.87,11.02-73.43-.22-146.85-.22-220.28,0C9.09,192.11,3.03,189.49,0,181.06Z"/>
      <path class="cls-1" d="M0,54.03c4.86,3.93,9.78,7.79,14.57,11.81,5.95,4.99,11.79,10.11,18.13,15.55C21.63,92.79,10.82,103.92,0,115.05c0-20.34,0-40.68,0-61.01Z"/>
      <path class="cls-1" d="M256,115.05c-10.77-11.1-21.55-22.2-32.87-33.86,11.17-9.23,22.02-18.19,32.87-27.15v61.01Z"/>
    </g>
  </g>
</svg>