<?xml version="1.0" encoding="UTF-8"?>
<svg id="_レイヤー_2" data-name="レイヤー 2" xmlns="http://www.w3.org/2000/svg" viewBox="0 0 256 210.95">
  <defs>
    <style>
      .cls-1 {
        fill: #675831;
      }
    </style>
  </defs>
  <g id="_レイヤー_1-2" data-name="レイヤー 1">
    <path class="cls-1" d="M256,65.36c-1.71,4.29-3.1,8.76-5.3,12.78-.87,1.6-3.52,3.11-5.39,3.16-11.82,.28-23.66,.28-35.49,0-1.9-.05-4.33-1.52-5.54-3.08-6.09-7.83-4.95-16.48-2.16-25.17,2.46-7.66,1.13-12.83-6.41-15.92-7.89-3.23-16.4-5.72-24.84-6.68-30.38-3.45-60.85-3.72-91.17,.83-6.79,1.02-13.62,3.19-19.87,6.05-7.06,3.23-8.41,8.33-5.97,15.72,2.87,8.68,3.94,17.33-2.14,25.16-1.22,1.56-3.64,3.04-5.54,3.08-11.82,.28-23.66,.28-35.49,0-1.87-.04-4.51-1.55-5.39-3.16C3.1,74.12,1.71,69.65,0,65.36c0-2.33,0-4.67,0-7,1.53-4.85,2.41-10.05,4.72-14.5C14.18,25.62,29.72,14.44,49.2,9.58,98.41-2.71,147.96-2.82,197.62,7.22c20.11,4.07,37.76,12.45,49.45,29.89,4.2,6.26,6.02,14.12,8.92,21.25v7Z"/>
    <path class="cls-1" d="M87.44,80.81V41.28c6.92,1.19,13.13,2.13,19.25,3.45,.83,.18,1.71,2.2,1.78,3.41,.22,4.12,.08,8.26,.08,12.76h38.78v-15.96c7.08-1.26,13.7-2.44,21.03-3.75v39.62c7.02,0,13.45,.24,19.86-.09,3.88-.2,5.91,1,7.55,4.64,8.34,18.49,17.03,36.82,25.45,55.27,1,2.18,1.58,4.75,1.59,7.15,.13,16.99,.09,33.98,.06,50.98-.02,8.84-3.24,12.17-11.97,12.18-55.3,.03-110.59,.03-165.89,0-8.54,0-11.86-3.31-11.88-11.77-.05-17.33-.06-34.65,.05-51.98,.01-2.08,.53-4.31,1.39-6.21,8.48-18.79,17.13-37.5,25.58-56.3,1.26-2.8,2.78-4.05,5.97-3.94,6.8,.23,13.62,.07,21.33,.07Zm76.91,65.72c.1-19.94-16.01-36.18-36.04-36.34-20.26-.16-36.69,16.06-36.67,36.21,.02,20.05,15.98,36.14,36.04,36.34,20.2,.2,36.57-15.96,36.67-36.21Z"/>
  </g>
</svg>