<?xml version="1.0" encoding="UTF-8"?>
<svg id="_レイヤー_2" data-name="レイヤー 2" xmlns="http://www.w3.org/2000/svg" viewBox="0 0 291.24 224.28">
  <defs>
    <style>
      .cls-1 {
        fill: #514d43;
      }
    </style>
  </defs>
  <g id="_レイヤー_1-2" data-name="レイヤー 1">
    <path class="cls-1" d="M291.24,69.49c-1.95,4.56-3.53,9.31-6.02,13.59-.99,1.7-4,3.31-6.13,3.36-13.45,.3-26.92,.3-40.37,0-2.16-.05-4.92-1.61-6.31-3.27-6.93-8.32-5.63-17.53-2.46-26.76,2.8-8.14,1.29-13.64-7.3-16.92-8.98-3.43-18.65-6.09-28.26-7.1-34.56-3.66-69.23-3.95-103.71,.88-7.73,1.08-15.5,3.39-22.61,6.43-8.04,3.44-9.57,8.86-6.79,16.71,3.26,9.23,4.48,18.43-2.44,26.75-1.38,1.66-4.14,3.23-6.31,3.28-13.45,.3-26.92,.3-40.37,0-2.13-.05-5.13-1.65-6.13-3.36C3.53,78.8,1.95,74.05,0,69.49c0-2.48,0-4.96,0-7.44,1.75-5.16,2.74-10.68,5.37-15.42C16.13,27.24,33.81,15.35,55.97,10.18,111.96-2.88,168.33-3,224.82,7.68c22.88,4.32,42.96,13.23,56.26,31.78,4.78,6.66,6.85,15.01,10.15,22.6v7.44Z"/>
    <path class="cls-1" d="M99.48,85.91V43.89c7.88,1.26,14.93,2.27,21.9,3.67,.94,.19,1.95,2.34,2.02,3.62,.25,4.38,.1,8.78,.1,13.57h44.12v-16.97c8.06-1.34,15.58-2.6,23.93-3.99v42.12c7.98,0,15.3,.26,22.59-.1,4.41-.21,6.72,1.06,8.59,4.93,9.48,19.66,19.37,39.14,28.95,58.76,1.13,2.32,1.79,5.05,1.81,7.6,.15,18.06,.11,36.13,.07,54.2-.02,9.4-3.68,12.94-13.62,12.95-62.91,.03-125.82,.03-188.73,0-9.72,0-13.49-3.52-13.52-12.51-.06-18.42-.07-36.84,.05-55.26,.01-2.21,.6-4.58,1.58-6.6,9.64-19.98,19.48-39.87,29.1-59.86,1.43-2.98,3.17-4.3,6.79-4.19,7.74,.25,15.5,.08,24.27,.08Zm87.5,69.88c.11-21.2-18.21-38.47-41-38.64-23.04-.17-41.74,17.08-41.72,38.5,.02,21.31,18.18,38.42,41,38.64,22.98,.21,41.6-16.97,41.72-38.5Z"/>
  </g>
</svg>