<?xml version="1.0" encoding="UTF-8"?>
<svg id="_レイヤー_2" data-name="レイヤー 2" xmlns="http://www.w3.org/2000/svg" viewBox="0 0 99.48 590.99">
  <defs>
    <style>
      .cls-1 {
        font-family: KouzanBrushFontGyousyoOTF-90ms-RKSJ-H, KouzanBrushFontGyousyoOTF;
        font-size: 30px;
        glyph-orientation-vertical: 0deg;
        letter-spacing: -.11em;
        text-orientation: upright;
        writing-mode: tb;
      }
    </style>
  </defs>
  <g id="_レイヤー_1-2" data-name="レイヤー 1">
    <g>
      <path d="M0,52.17v-4.86c.03-.22,.08-.43,.1-.65,.14-2.76,.53-5.5,1.18-8.18C4.47,25.36,11.73,15.1,23.05,7.76,29.45,3.61,36.49,1.17,44.08,.32c1.08-.12,2.15-.22,3.23-.32h4.86c.14,.03,.28,.07,.43,.08,3.02,.16,6.01,.58,8.94,1.33,13.03,3.31,23.17,10.65,30.39,21.97,4.03,6.32,6.4,13.25,7.23,20.7,.12,1.08,.22,2.15,.32,3.23v4.86c-.03,.22-.08,.43-.1,.65-.18,3.37-.71,6.7-1.62,9.95-3.52,12.51-10.78,22.27-21.76,29.22-6.3,3.99-13.19,6.34-20.6,7.18-1.08,.12-2.15,.22-3.23,.32h-4.86c-.22-.03-.43-.08-.65-.1-3.37-.18-6.7-.71-9.95-1.62-12.54-3.52-22.3-10.8-29.25-21.8-3.98-6.3-6.33-13.2-7.15-20.61-.12-1.06-.21-2.12-.32-3.18ZM49.76,2.54c-25.93,0-46.94,20.87-47.22,46.68-.28,26.28,20.81,47.48,46.71,47.73,26.29,.25,47.46-20.86,47.69-46.75,.23-26.35-21.05-47.64-47.18-47.65Z"/>
      <path d="M50.08,96.27v-8.42c0-.42,0-.85,0-1.27,0-.25,.06-.58-.32-.58-.42,0-.35,.34-.35,.61,0,.81,0,1.62,0,2.43v7.12c-2.6-.02-5.14-.25-7.8-.72,.43-1.14,.79-2.25,1.27-3.31,1.41-3.11,3.55-5.61,6.37-7.54,.35-.24,.6-.27,.97-.02,3.74,2.58,6.2,6.07,7.46,10.42,.04,.14,.06,.28,.12,.57-2.57,.24-5.11,.47-7.72,.71Z"/>
      <path d="M24.52,88.64c-1.04-.44-1.61-1.09-1.86-2.18-2.57-10.94,.1-20.46,7.71-28.65,2.5-2.69,5.43-4.85,8.57-6.74,.4-.24,.77-.63,1-1.04,.52-.93,.91-1.93,1.42-2.86,.35-.64,.74-1.28,1.22-1.82,1-1.13,2.31-1.05,3.16,.21,.42,.62,.75,1.06,1.62,1.05,.75,0,1.31,.54,1.52,1.32,.24,.9-.09,1.65-.75,2.23-.33,.29-.4,.56-.35,.95,.25,1.98-.67,2.51-2.46,2.1-1.14-.26-2.25-.69-3.31-1.19-1.29-.6-2.36-.52-3.6,.25-5.13,3.19-9.43,7.18-12.29,12.56-3.99,7.5-4.41,15.29-1.76,23.3,.05,.15,.11,.31,.18,.54Z"/>
      <path d="M75.04,88.67c.4-1.55,.88-3.02,1.16-4.52,1.87-9.91-.75-18.53-7.6-25.89-2.44-2.62-5.3-4.72-8.4-6.49-.49-.28-.96-.36-1.47-.17-1.05,.39-2.07,.87-3.14,1.19-.85,.26-1.74,.44-2.63,.48-.81,.04-1.21-.49-1.26-1.3,0-.06,0-.11,0-.17,.12-.79-.01-1.43-.66-2.04-.59-.56-.68-1.38-.29-2.16,.39-.78,1.08-1.09,1.91-1.05,.4,.02,.61-.09,.75-.46,.08-.22,.24-.42,.38-.6,.88-1.13,2.09-1.24,3.06-.19,.49,.53,.87,1.18,1.25,1.81,.25,.4,.46,.84,.62,1.29,.56,1.55,1.56,2.6,3,3.48,5.28,3.22,9.55,7.47,12.51,12.95,2.14,3.96,3.32,8.2,3.52,12.7,.14,3.15-.25,6.24-1.03,9.29-.17,.65-.43,1.15-1.04,1.44-.21,.1-.4,.26-.64,.42Z"/>
      <path d="M74.27,88.25c-.05-.21-.09-.42-.15-.64-.68-2.69-2.9-4.59-5.79-4.93-.56-.07-1.14-.05-1.7-.13-.18-.02-.42-.21-.48-.37-.24-.65-.1-1.26,.31-1.82,.1-.14,.19-.39,.13-.52-.44-1.08-.33-2.05,.49-2.9-.13-.28-.26-.52-.35-.77-.39-1.09,.15-2.01,1.27-2.23,2.62-.5,5.6,1.04,6.94,3.58,.72,1.37,1.01,2.83,.9,4.37-.16,2.2-.76,4.29-1.58,6.35Z"/>
      <path d="M25.2,88.27c-.94-2.79-1.96-5.55-1.43-8.55,.6-3.39,3.45-5.81,6.76-5.87,2.01-.04,2.97,1.17,1.88,3.08,.8,.84,.93,1.81,.5,2.89-.06,.15,.04,.41,.15,.57,.36,.54,.49,1.1,.33,1.73-.08,.33-.23,.46-.61,.46-2-.02-3.87,.41-5.43,1.77-1.08,.94-1.75,2.12-2.03,3.51-.03,.14-.07,.27-.11,.41Z"/>
      <path d="M21.13,81.47c-1.2-1.14-2.52-1.96-4.1-2.23-.93-.16-1.9-.11-2.85-.18-.22-.02-.49-.1-.63-.26-.35-.37-.64-.8-.96-1.21-.2-.26-.46-.5-.15-.86,.05-.06-.03-.27-.09-.4-.57-1.25-.5-2.38,.52-3.39,.11-.1,.13-.31,.15-.48,.01-.14-.06-.29-.07-.43-.15-1.42,.63-2.2,2.03-1.97,2.4,.39,4.41,1.4,5.49,3.74,.5,1.07,.61,2.21,.58,3.39-.03,1.12,0,2.24,.01,3.36,0,.31,.03,.62,.05,.93Z"/>
      <path d="M78.43,81.51c0-1.79-.05-3.52,0-5.24,.1-3.19,2.08-5.29,5.23-6.06,.41-.1,.83-.19,1.25-.2,1.03-.01,1.61,.6,1.62,1.68,.01,.81,.13,1.19,.54,1.84,.56,.88,.46,1.78,.1,2.7-.08,.21-.03,.46-.05,.69,0,.13-.02,.27-.06,.39-.03,.08-.11,.15-.16,.23-.62,1.07-1.36,1.63-2.79,1.52-2.11-.16-3.99,.71-5.49,2.26-.06,.06-.13,.11-.21,.18Z"/>
      <path d="M67.44,70.77c-.97-.6-1.4-1.39-1.13-2.5,.03-.12-.1-.33-.22-.43-1.05-.9-.94-1.89,.33-2.48,1.8-.83,3.56-.54,5.23,.39,1.32,.73,2.28,1.81,2.82,3.21,1.09,2.84,1.58,5.79,1.62,8.69-.58-.78-1.14-1.73-1.88-2.49-1.66-1.7-3.77-2.21-6.08-1.96-.4,.04-.56-.1-.71-.41-.32-.66-.27-1.32,0-2.02Z"/>
      <path d="M32.05,70.79c.29,.72,.33,1.44-.09,2.12-.09,.14-.33,.29-.5,.28-3.89-.27-6.21,1.03-7.96,4.52-.01,.03-.05,.05-.13,.11,.08-3.2,.55-6.27,1.78-9.19,.51-1.22,1.41-2.15,2.56-2.82,1.56-.91,3.22-1.24,4.97-.62,.26,.09,.51,.21,.74,.37,.89,.62,.94,1.47,.1,2.14-.32,.26-.41,.48-.32,.87,.16,.7-.09,1.3-.62,1.78-.16,.15-.34,.28-.53,.43Z"/>
      <path d="M38.05,90.74c-.29,0-.53,.03-.75,0-.72-.11-1.44-.34-2.16-.36-1.37-.04-2.4,.6-3.04,1.82-.07,.13-.14,.26-.27,.5-1.87-.98-3.73-1.93-5.57-2.93-.15-.08-.25-.39-.26-.59-.07-2.78,1.9-5.13,4.81-5.69,.79-.15,1.61-.21,2.41-.16,1.16,.07,1.58,.58,1.57,1.77,0,.42,.08,.68,.5,.89,.97,.49,1.14,1.38,.96,2.36-.06,.35,.02,.52,.32,.69,.65,.37,1.19,.86,1.49,1.69Z"/>
      <path d="M61.52,90.83c.23-.96,.8-1.45,1.46-1.83,.25-.14,.31-.28,.26-.57-.22-1.15,.07-2.07,1.21-2.61,.12-.06,.22-.28,.22-.42-.02-1.73,.59-2.16,2.39-2.12,1.21,.03,2.38,.27,3.45,.87,1.96,1.11,2.98,2.79,2.97,5.06,0,.2-.12,.5-.28,.58-1.83,.98-3.67,1.93-5.46,2.86-.14-.1-.18-.12-.2-.14-.89-2-2.66-2.54-4.92-1.91-.36,.1-.74,.15-1.1,.23Z"/>
      <path d="M85.53,69.19c-3.21,.32-6.07,1.21-7.4,4.59-.49-1.93-1.06-3.79-1.43-5.68-.54-2.73,.78-5.41,3.19-6.79,1.17-.67,2.23-.22,2.54,1.15,.11,.49,.33,.79,.74,1.06,.79,.52,1.18,1.28,1.16,2.25,0,.18,.11,.42,.24,.55,.78,.79,1.14,1.76,.96,2.87Z"/>
      <path d="M21.35,73.67c-1.27-2.84-3.43-4.11-7.42-4.51-.13-1.06,.18-1.97,.9-2.77,.17-.19,.31-.48,.32-.73,.02-.92,.41-1.65,1.16-2.14,.41-.27,.63-.57,.74-1.06,.23-1.08,.98-1.62,1.88-1.41,.31,.07,.62,.24,.89,.42,2.61,1.72,3.63,4.53,2.78,7.61-.43,1.54-.84,3.08-1.25,4.6Z"/>
      <path d="M23.68,66.19c-.33-2.7-1.86-4.51-4.18-5.74-.68-.36-.8-.6-.32-1.21,.37-.48,1-.76,1.37-1.23,.37-.47,.45-1.24,.88-1.59,.73-.58,1.4-1.1,1.91-1.97,.72-1.22,2.03-1.08,2.82,.11,1.37,2.07,1.57,4.28,.45,6.49-.88,1.75-1.94,3.41-2.94,5.14Z"/>
      <path d="M75.81,66.16c-.91-1.56-1.85-3.07-2.71-4.63-1.29-2.34-1.26-4.67,.2-6.94,.39-.61,.88-1.06,1.67-.93,.77,.12,1.46,.85,1.65,1.61,.05,.18,.23,.4,.4,.47,.94,.37,1.57,.99,1.8,2,.04,.18,.23,.35,.4,.46,.57,.36,1.07,.77,1.29,1.45,.11,.34,.05,.52-.29,.69-1.27,.62-2.38,1.46-3.21,2.63-.69,.97-1.05,2.05-1.2,3.2Z"/>
      <path d="M26.72,65.32c.81-1.79,1.89-3.39,3.13-4.87,.6-.72,1.25-1.4,1.88-2.09,1.06-1.14,2.38-1.46,3.83-.97,.77,.26,1.49,.69,2.2,1.11,.47,.27,.85,.69,.74,1.31-.12,.65-.63,.91-1.21,1.05-.12,.03-.25,.05-.3,.06-.11,.51-.09,1.06-.34,1.42-.26,.37-.78,.54-1.26,.85,0,.46,0,1.07-.53,1.47-.39,.3-.75,.45-1.29,.15-2.04-1.13-4.1-.9-6.13,.1-.24,.12-.48,.27-.71,.4Z"/>
      <path d="M64.06,63.03c-1.31-.37-1.54-.7-1.45-2.06-.31-.1-.64-.16-.93-.3-.79-.39-1.01-1.23-.38-1.8,1.25-1.14,2.69-1.89,4.45-1.6,.54,.09,1.13,.33,1.53,.69,2.29,2.09,4.09,4.56,5.63,7.41-.24-.11-.36-.16-.47-.23-2.22-1.24-4.46-1.52-6.76-.21-.44,.25-1.25-.2-1.45-.83-.11-.32-.11-.68-.17-1.06Z"/>
      <path d="M28.08,59.21c.3-2.47-.57-4.48-2.3-6.14-.26-.25-.24-.44-.07-.71,.31-.47,.78-.65,1.3-.73,.18-.03,.36-.03,.53-.05,.4-1.56,.51-1.64,2.51-1.76,.23-.75,.73-1.25,1.48-1.5,.6-.2,1.09-.01,1.28,.59,.63,2.01,.73,4.85-1.32,6.83-1.15,1.11-2.24,2.27-3.41,3.47Z"/>
      <path d="M69.43,49.83c1.92,.07,2.22,.28,2.48,1.76,.16,.01,.35,0,.52,.05,.38,.13,.79,.23,1.1,.46,.51,.38,.49,.66,.05,1.1-1.65,1.66-2.46,3.62-2.16,6.12-.22-.24-.35-.38-.48-.52-.92-.96-1.78-1.96-2.76-2.86-2.1-1.93-2.23-4.62-1.52-6.98,.2-.66,.71-.85,1.36-.61,.72,.27,1.2,.76,1.41,1.49Z"/>
      <path d="M65.47,56.24c-1.86,.27-3.38,1.05-4.74,2.17-.54,.44-1.7-.04-2.03-.83-.1-.25-.13-.53-.21-.85-.9-.17-1.82-.38-1.84-1.61-.37-.07-.72-.09-1.04-.21-.26-.1-.52-.28-.69-.5-.26-.34-.1-.65,.27-.79,1.27-.48,2.55-.95,3.83-1.39,.2-.07,.49-.05,.68,.05,2.02,1.1,3.92,2.4,5.77,3.95Z"/>
      <path d="M40.95,56.75c0,1.02-.54,1.62-1.52,1.8-.22,.04-.52-.03-.69-.17-1.36-1.09-2.86-1.86-4.67-2.13,.11-.12,.17-.22,.26-.28,1.74-1.2,3.48-2.4,5.24-3.56,.26-.17,.72-.22,1.02-.12,1.24,.4,2.46,.87,3.68,1.33,.48,.18,.58,.64,.17,.94-.34,.25-.79,.33-1.19,.49-.15,.06-.41,.13-.42,.21-.11,1.03-.86,1.28-1.7,1.43-.04,0-.07,.02-.18,.06Z"/>
      <path d="M65.83,53.8c-1.31-.89-2.53-1.86-3.87-2.6-1.21-.67-2.02-1.58-2.53-2.83-.26-.64-.62-1.25-.93-1.88-.25-.52-.06-.87,.51-.79,.63,.09,1.23,.33,1.85,.49,.28,.07,.56,.16,.84,.16,.74,.01,1.43,.2,1.99,.69,.28,.25,.54,.39,.93,.28,.19-.05,.4-.03,.6,0,.85,.12,1.03,.4,.8,1.22-.47,1.72-.66,3.46-.19,5.25Z"/>
      <path d="M33.82,53.64c0-.98,.07-2.11,0-3.23-.05-.74-.26-1.48-.47-2.21-.1-.36-.01-.57,.28-.64,.45-.12,.93-.15,1.39-.23,.2-.03,.44-.03,.58-.15,.7-.57,1.47-.88,2.39-.81,.2,.02,.41-.11,.62-.17,.6-.17,1.18-.41,1.79-.5,.64-.1,.86,.25,.57,.82-.55,1.1-1.1,2.2-1.7,3.28-.15,.27-.41,.51-.68,.69-1.63,1.09-3.28,2.16-4.78,3.15Z"/>
      <path d="M57.34,91.9c1.39-.58,2.77-.96,4.25-.42,.18,.07,.42,0,.63-.03,.61-.12,1.21-.31,1.83-.37,1.35-.13,2.28,.46,2.85,1.8-2.7,1.11-5.49,1.9-8.36,2.46-.4-1.15-.79-2.26-1.2-3.43Z"/>
      <path d="M42.13,91.91c-.4,1.14-.78,2.25-1.19,3.41-2.85-.53-5.62-1.35-8.31-2.42,.26-1.16,1.36-1.94,2.67-1.84,.65,.05,1.29,.26,1.94,.38,.24,.04,.51,.07,.73,0,1.46-.47,2.82-.13,4.16,.47Z"/>
      <path d="M85.06,79.81c-1.37,1.88-5.74,5.97-7.6,7.14,.39-3.83,2.27-7.24,7.16-7.19,.12,0,.24,.02,.43,.05Z"/>
      <path d="M22.08,87.03c-2.86-2.14-5.38-4.49-7.71-7.23,1.67-.14,3.13,.15,4.46,1,2.25,1.43,2.82,3.73,3.24,6.23Z"/>
    </g>
    <path d="M28.65,336.99c-1.17-.7-2.34-1.26-3.63-1.96v-.42h-.82c-1.41-5.18-2.81-10.37-4.22-15.55-1.52-5.04-2.58-10.37-3.4-15.83h-.59c-1.05,5.32-2.23,10.37-3.4,15.41-1.29,5.04-3.05,9.95-5.27,14.57l-1.05,1.4h-.59c0,.56-.12,.84-.47,.98-.35,.14-.82,.28-1.17,.42v-.28c3.98-8.13,6.45-16.95,7.5-26.06,1.05-9.25,1.64-18.64,1.64-28.3l-1.41-4.2h.35l3.87,2.94c.59,.84,.94,1.82,1.05,2.94,.12,1.26,.47,2.1,1.17,2.8l1.17-.7v-.7l-1.52-1.54h.35l1.17,.98v.98h.59l4.8-.7,1.87,.7,.82-14.29h-1.17l-.82,2.52-1.87,1.68-3.05,2.1v-.28l1.05-3.78-3.75-5.32h-.47v-.42h.23v-.56l-.23-.42h.23l4.8,1.96,5.04-2.24c1.41,.14,3.05,.56,4.69,.98,1.52,.42,3.05,1.12,4.57,1.96v1.26l-1.17,3.36-.82,.7c-1.05,3.36-1.76,6.87-2.11,10.51-.47,3.64-.94,7.57-1.52,11.35v15.27c.12,4.48,.7,8.97,1.52,13.31,.7,4.48,1.29,9.11,1.64,13.73l-2.11,.98c-1.05-.84-2.23-1.54-3.52-2.24Zm27.66-1.96v-.42l-.82-.42v-.56l-.82-.42-.35-.98-1.99-.98c-.7-.98-1.05-2.1-1.17-3.22-.12-1.26-.35-2.38-.47-3.64h-.59l-4.22,7.29,.35,.98-1.41,.28-.82-.98c-.35-.98-.82-1.96-1.41-2.8-.59-.56-.82-1.68-.59-2.94l2.34-1.54c1.05-2.24,1.76-4.62,2.34-7.15,.59-2.38,.7-5.18,.59-7.99l-2.11-3.5h-.82l-2.7,4.76h-.47l-.23,.84h-.59l-.59,1.26-1.29,1.68-1.52,.98-.23-.7c1.29-2.8,2.46-5.61,3.52-8.83,.94-2.94,1.64-6.03,2.23-9.11h-.47l-1.87,.56-.82-.98c.12-.84,.12-1.54-.23-1.96-.35-.42-.59-.7-.59-1.4l.82-1.96,2.34-.7,.59-1.26,1.52-.7,1.05-1.68,1.05-.98,.82-5.46h-1.05l-1.87,.7-.59-.28c-.12-.98-.35-1.68-.59-2.38-.35-.56-.47-1.4-.35-2.38l.23-.7,2.11-1.26,.23-.7h.82v-.56h.82c-.12-.84,.12-1.4,.7-1.82,.47-.28,.7-.7,.59-1.68-.7-.14-1.41-.56-1.99-.98-.59-.42-1.17-.98-1.76-1.82l-1.05-3.78,1.05-2.94,1.17-.28c.82-1.96,1.64-4.06,2.34-6.16,.7-1.96,1.29-4.2,1.87-6.45h-1.64c-1.52,.84-3.16,1.54-4.8,2.1-1.52,.7-3.16,1.26-4.8,1.96v.7l-4.22,2.1c-.47,1.12-.94,2.24-1.17,3.36-.35,1.26-.47,2.38-.23,3.64l-1.64,.7-.82-.42v-.56l-2.34-1.4v-.42c-.59-.14-1.05-.56-1.52-1.12-.47-.56-1.05-.7-1.76-.56l-4.45,.7c-2.11-.42-4.1-1.12-6.09-1.82-1.87-.7-3.75-1.96-5.27-3.5h.23l5.86,.28,11.13-3.22,.23-8.13h.59l3.05,4.06,.59,2.38h.82c3.28-1.12,6.68-2.24,10.08-3.22,3.28-.98,6.68-1.82,10.08-2.8l.82-6.87-1.99-.28v-.28l2.23-1.68,6.21,1.4v.56l1.99,.98,.47,2.1-.23,1.68h.59c.82-.14,1.64-.56,2.46-1.26,.82-.7,1.64-1.26,2.46-1.68,2.34,1.54,4.8,2.38,7.38,2.8,2.58,.42,4.92,1.26,7.27,2.24l.23,.98-.82,1.26c-.59,.42-1.17,.7-1.76,.84-.59,.14-1.17,.28-1.76,.42l-4.45-.56-1.29,.28-.23-.28h-11.95v.56l-2.34,1.96-.82,2.1-.82,.42-.23,1.26-1.05,1.26-2.93,4.48,2.58,.98v.56h.59v.7h.47l.82,2.1h.59l1.05-1.68h.7v-.42h.59c.82,.56,1.87,.84,2.93,.98,1.05,.14,1.99,.42,2.93,1.12l.23,1.26c-.7,1.26-1.52,2.38-2.46,3.08-1.05,.98-1.99,1.82-2.81,2.66l-3.16,3.36h.59l2.23-.84v-.98l1.64-.28c.82,.7,1.64,.98,2.58,1.12,.94,.14,1.87,.42,2.81,.98l.23,1.4-4.8,4.06v.56c1.05,1.26,2.23,2.24,3.75,2.94,1.41,.7,2.7,1.26,4.22,1.96l.23,.84-2.11,1.96v.98l6.56,7.85v.56l21.8,14.29v.7h-.59c-5.62-1.82-11.25-4.06-16.64-7.15-5.51-2.8-10.43-7.01-14.88-12.19l-1.52-2.24h-1.05l-10.31,5.46-.82,1.82h-.59l-.82,3.22h-.47c-.23,1.26-.7,2.38-1.29,3.64-.59,1.26-.94,2.66-1.29,3.78,1.41,0,2.7,.28,4.1,.84,1.29,.56,2.58,1.4,3.52,2.38l.47,2.8-2.34,5.18h-.47l-1.05,3.78h.47l3.75-4.76v.42l-2.34,6.59,.23,1.12h.59l.7,.98c.12,.7,.47,1.26,.82,1.96,.35,.7,.7,.98,1.29,.98,.59-2.8,.82-5.6,.94-8.69,.12-2.8,.12-5.89,.12-8.69-.59-2.66-.94-5.04-1.05-7.71-.12-2.52-.82-4.76-2.11-6.87h.23c1.29,.84,2.46,1.68,3.75,2.66,1.17,.98,2.23,2.1,3.16,3.64v1.96l-.23,7.15,.23,1.26c-.59,2.94-.82,5.88-.94,8.97-.12,3.08-.23,6.17-.47,9.11l.35,1.26-.82,3.5-.82,.56-.94-.98Zm-37.15-37.83l2.11-7.99h-.7c-1.05,1.12-1.64,2.38-1.76,3.92-.12,1.4-.23,2.8-.23,4.34l.35,.28,.23-.28v-.28Zm9.02,27.74c-.7-5.04-1.17-10.09-1.29-15.41-.12-5.32-.35-10.51-.59-15.83h-.47c-1.05,1.12-1.99,2.52-2.7,4.06-.7,1.54-1.29,2.94-1.87,4.48h.59l3.63-3.78c-.12,1.26-.47,2.38-.82,3.5-.47,1.26-1.17,2.38-1.99,3.5l-1.05,.14-.59,1.68h-1.29v1.96c1.05,3.5,2.23,7.15,3.4,10.65,1.29,3.64,2.81,7.01,4.8,10.09l.23-.28v-4.76Zm20.86-60.11l.59-6.87h-.59l-3.16,4.48,1.64,3.36h.7l.82-.28v-.7Zm10.31,18.08l-1.29-2.52h-.59l-4.69,4.06-.47,2.66h.7l6.09-3.22,.23-.98Zm6.21,27.32c.47-1.54,.82-3.22,1.05-4.62,.12-1.54,.23-3.22,.23-5.04h.7l1.87,.7v-.28h.59l6.8,3.5,.23,.98h-.35v.56l-.82,.84h-1.17v.7l.35,.7h-.35l-3.05-.98c-1.05,.42-2.11,1.12-2.93,2.24-.94,1.12-1.87,1.54-3.16,1.26v-.56Zm8.67,17.94l-2.93-4.48h.35c1.64,.84,3.4,1.68,5.16,2.38,1.64,.7,3.28,1.68,4.92,2.8v.84l-2.81,1.26-4.69-2.8Z"/>
    <path d="M21.21,454.95v-.7l1.29-1.26c6.91-11.07,11.95-22.98,15-35.73,3.16-12.75,4.69-25.78,4.8-39.51h-.59c-1.99,1.54-4.1,2.94-6.21,4.76-2.23,1.82-4.1,4.06-5.62,6.31l-2.7,4.76c-.59,.42-1.05,.7-1.64,.84-.59,.28-1.29,.28-1.99,.14l-2.11-3.22-.23-1.26-2.93-5.04,.23-.56c2.23-.28,3.98-1.4,5.51-3.22,1.52-1.68,3.05-2.8,5.04-3.5l.82,.28c4.45-3.64,9.02-7.29,13.71-10.37,4.69-3.22,9.49-5.46,14.65-7.01,1.52,.7,3.05,1.26,4.8,1.96,1.76,.56,3.16,1.54,4.69,2.8l.23,1.26-2.58,10.09h-.59l-1.05,6.03c3.16,0,6.33,.42,9.14,1.26,2.81,.84,5.62,2.1,7.97,3.78l.35,1.26c-.7,.7-1.05,1.54-1.17,2.52,0,.98-.12,2.1-.12,3.22l-1.05,.56c-.35,1.26-.7,2.66-.82,3.92-.12,1.4-.23,2.94-.23,4.48h-.59c-1.99,7.71-3.28,15.69-4.1,23.82-.94,8.27-2.46,16.39-4.34,24.1l-3.98,1.96-.23,.56h-.82c-2.23-1.54-4.1-3.22-6.09-5.04-1.99-1.82-3.98-3.5-6.33-4.62l-1.29-4.62,1.29,2.66c1.41,.42,2.81,.98,4.34,1.68,1.29,.7,2.81,1.26,4.45,1.4l3.4-1.54c2.58-7.57,4.34-15.55,5.16-23.68,.82-8.27,1.29-16.53,1.52-25.08l-1.17-5.32-5.51-.98-5.86,1.68v-.7l-2.34-1.96-1.05-1.82-.59-.28-.23-1.26c.59-2.38,1.05-4.76,1.41-7.29,.35-2.38,.47-4.76,.47-7.29h-.47c-1.29,.56-2.58,1.12-3.87,1.82-1.17,.7-2.34,1.4-3.63,2.38l-.23,1.12,4.22,4.2v2.1h-.59c.12,1.12,0,2.1-.23,2.94-.47,.84-.82,1.82-1.05,2.8h-.47c-2.58,10.79-5.27,21.72-8.09,32.51-2.93,10.79-7.27,21.02-12.89,30.55l-1.99,1.4-1.17,1.68-3.16,1.54-.47-.28Z"/>
    <path d="M57.71,590.29h-.35l-.94-13.59,.23-.98h-.59c-.12-6.73-.35-13.31-.59-19.76-.23-6.45-.35-13.17-.47-19.9l-2.23-.14c-2.93,.56-5.86,1.12-8.91,1.68-2.93,.56-5.74,1.4-8.55,2.52-1.05,2.94-1.87,6.17-2.58,9.25-.82,3.22-1.52,6.45-2.34,9.81h-.59c-.12,1.82-.47,3.64-1.17,5.18-.59,1.54-1.29,3.08-1.87,4.62l-2.46,1.54v.56h-.23c-.59-.14-.82-.56-.82-1.12,0-.42,0-1.12,.12-1.82,.94-4.06,1.99-8.27,3.05-12.47,1.05-4.06,1.76-8.41,1.87-13.03h-.7l-5.39,2.1v.7c-1.52,.42-3.05,.84-4.45,1.4-1.64,.56-3.16,.98-4.57,1.68-.35-1.4-.82-3.08-1.29-4.62-.47-1.54-.82-2.94-1.05-4.76l.94-1.4c1.99-.98,3.98-1.96,5.98-3.36,1.87-1.4,3.75-3.08,5.51-4.9l1.52-1.96h.59l.12-.7,2.23-1.4v-.7h.47l1.17-1.82,.82-.28v-.7l1.05-.98,.12-3.08-.12-1.68h-.59l-.59,1.26-5.27,2.24c-.7-.84-1.29-1.4-2.11-1.96-.82-.42-1.64-1.12-2.34-1.96v-.7c-.94-.28-1.76-.84-2.46-1.82-.82-.84-1.52-1.68-2.23-2.66l-.35-.98h.35l.12-1.26,4.1,.14,1.99,.42,4.69-.56v-.56c-.35-.42-.59-.98-.7-1.4-.23-.56-.35-1.12-.23-1.82l1.05-2.38,1.41-.42,.12-.7-2.34-3.64h.7l.12-.7h-.23l2.34-.14c1.52,.28,2.93,.7,4.22,1.12,1.17,.42,2.46,1.26,3.63,2.24l6.09-3.36c1.41,.42,2.7,1.26,3.98,2.24,1.17,.98,2.58,1.54,4.34,1.68l4.1-1.4,.35-1.96c-.35-2.66-.59-5.32-.94-7.85-.35-2.38-1.05-4.76-1.76-6.87l1.29-1.26,.59-4.48,1.17,.14,1.64,.84v.56l1.76,1.54,.23,.98h1.64l1.17-.14,1.76,1.26,.23,1.82-.35,2.1,.7,2.38c-.7,.98-1.05,2.1-1.05,3.36-.12,1.26-.23,2.66-.47,3.92l1.87,2.38c1.05,.42,2.11,.7,3.28,.84,1.17,.14,1.99,.98,2.58,2.38h.35l-.12,1.54-7.85,3.64c-.35,1.68-.7,3.36-.94,4.9-.35,1.54-.59,3.22-.59,5.04l.23,2.94c-.35,.84-.59,1.82-.7,2.94-.12,1.26-.23,2.24-.35,3.36l.12,3.08h.59l5.51-1.4v-1.4l-.47-1.26h.23l.59-2.8h.82c3.52,.98,6.91,1.96,10.31,2.66,3.4,.84,6.68,1.82,9.96,3.08v.7h-.35l-.12,1.26h.59v.7l-2.93,.7-.59,1.26-24.61,3.78-.35,2.8,.23,3.5-.35,.98,.35,4.34-.23,2.52v4.48l-.23,1.4,.23,7.43-.59,19.34c-.59,1.26-.94,2.66-1.05,4.2-.12,1.4-.35,2.66-.47,4.2h-.35v-.7Zm-26.72-58.15v-3.64h-.47l-1.76,1.12-.47,.84-3.63,3.36-.35,.98-4.1,3.36-.12,.98h1.05l9.14-3.36c.35-1.12,.59-2.38,.7-3.64Zm24.14-5.46l-.82-13.17-1.52-.98v-.56h-.7c-1.76,.84-3.4,1.96-4.8,3.08-1.52,1.12-3.05,2.24-4.45,3.36l-.23,.42-3.28,2.24c-.7,1.82-1.17,3.78-1.52,6.03-.47,2.24-1.05,4.34-1.76,6.45h1.17l17.58-3.92,.35-2.94Z"/>
    <text class="cls-1" transform="translate(49.93 123.26) scale(.92 1.1)"><tspan x="0" y="0">日本橋</tspan></text>
  </g>
</svg>