<?xml version="1.0" encoding="UTF-8"?>
<svg id="_レイヤー_2" data-name="レイヤー 2" xmlns="http://www.w3.org/2000/svg" viewBox="0 0 580.68 141.78">
  <defs>
    <style>
      .cls-1 {
        letter-spacing: -.11em;
      }

      .cls-2 {
        font-size: 128px;
      }

      .cls-2, .cls-3 {
        font-family: KouzanBrushFontGyousyoOTF-90ms-RKSJ-H, KouzanBrushFontGyousyoOTF;
      }

      .cls-4 {
        letter-spacing: -.07em;
      }

      .cls-3 {
        font-size: 30px;
        letter-spacing: 0em;
      }

      .cls-5 {
        letter-spacing: -.11em;
      }
    </style>
  </defs>
  <g id="_レイヤー_1-2" data-name="レイヤー 1">
    <g>
      <path d="M0,72.67v-4.86c.03-.22,.09-.43,.1-.65,.14-2.76,.53-5.5,1.18-8.18,3.19-13.12,10.46-23.38,21.78-30.72,6.4-4.15,13.44-6.59,21.02-7.44,1.08-.12,2.15-.21,3.23-.32h4.86c.14,.03,.28,.07,.43,.08,3.02,.16,6.01,.58,8.94,1.33,13.03,3.31,23.17,10.65,30.39,21.97,4.03,6.32,6.4,13.25,7.23,20.7,.12,1.08,.22,2.15,.32,3.23v4.86c-.03,.22-.08,.43-.1,.65-.18,3.37-.71,6.7-1.62,9.95-3.52,12.51-10.78,22.27-21.76,29.22-6.3,3.99-13.19,6.34-20.6,7.18-1.08,.12-2.15,.22-3.23,.32h-4.86c-.22-.03-.43-.08-.65-.1-3.37-.18-6.7-.71-9.95-1.62-12.54-3.52-22.3-10.8-29.25-21.8-3.98-6.3-6.33-13.2-7.15-20.61-.12-1.06-.21-2.12-.32-3.18ZM49.76,23.04c-25.93,0-46.94,20.87-47.22,46.68-.28,26.28,20.81,47.48,46.71,47.73,26.29,.25,47.46-20.86,47.69-46.75,.23-26.35-21.05-47.64-47.18-47.65Z"/>
      <path d="M50.08,116.77v-8.42c0-.42,0-.85,0-1.27,0-.25,.06-.58-.32-.58-.42,0-.35,.34-.35,.61,0,.81,0,1.62,0,2.43v7.12c-2.6-.02-5.14-.25-7.8-.72,.43-1.14,.79-2.25,1.27-3.31,1.41-3.11,3.55-5.61,6.37-7.54,.35-.24,.6-.27,.97-.02,3.74,2.58,6.2,6.07,7.46,10.42,.04,.14,.06,.28,.12,.57-2.57,.24-5.11,.47-7.72,.71Z"/>
      <path d="M24.52,109.14c-1.04-.44-1.61-1.09-1.86-2.18-2.57-10.94,.1-20.46,7.71-28.65,2.5-2.69,5.43-4.85,8.57-6.74,.4-.24,.77-.63,1-1.04,.52-.93,.91-1.93,1.42-2.86,.35-.64,.74-1.28,1.22-1.82,1-1.13,2.31-1.05,3.16,.21,.42,.62,.75,1.06,1.62,1.05,.75,0,1.31,.54,1.52,1.32,.24,.9-.09,1.65-.75,2.23-.33,.29-.4,.56-.35,.95,.25,1.98-.67,2.51-2.46,2.1-1.14-.26-2.25-.69-3.31-1.19-1.29-.6-2.36-.52-3.6,.25-5.13,3.19-9.43,7.18-12.29,12.56-3.99,7.5-4.41,15.29-1.76,23.3,.05,.15,.11,.31,.18,.54Z"/>
      <path d="M75.04,109.17c.4-1.55,.88-3.02,1.16-4.52,1.87-9.91-.75-18.53-7.6-25.89-2.44-2.62-5.3-4.72-8.4-6.49-.49-.28-.96-.36-1.47-.17-1.05,.39-2.07,.87-3.14,1.19-.85,.26-1.74,.44-2.63,.48-.81,.04-1.21-.49-1.26-1.3,0-.06,0-.11,0-.17,.12-.79-.01-1.43-.66-2.04-.59-.56-.68-1.38-.29-2.16,.39-.78,1.08-1.09,1.91-1.05,.4,.02,.61-.09,.75-.46,.08-.22,.24-.42,.38-.6,.88-1.13,2.09-1.24,3.06-.19,.49,.53,.87,1.18,1.25,1.81,.25,.4,.46,.84,.62,1.29,.56,1.55,1.56,2.6,3,3.48,5.28,3.22,9.55,7.47,12.51,12.95,2.14,3.96,3.32,8.2,3.52,12.7,.14,3.15-.25,6.24-1.03,9.29-.17,.65-.43,1.15-1.04,1.44-.21,.1-.4,.26-.64,.42Z"/>
      <path d="M74.27,108.75c-.05-.21-.09-.42-.15-.64-.68-2.69-2.9-4.59-5.79-4.93-.56-.07-1.14-.05-1.7-.13-.18-.02-.42-.21-.48-.37-.24-.65-.1-1.26,.31-1.82,.1-.14,.19-.39,.13-.52-.44-1.08-.33-2.05,.49-2.9-.13-.28-.26-.52-.35-.77-.39-1.09,.15-2.01,1.27-2.23,2.62-.5,5.6,1.04,6.94,3.58,.72,1.37,1.01,2.83,.9,4.37-.16,2.2-.76,4.29-1.58,6.35Z"/>
      <path d="M25.2,108.77c-.94-2.79-1.96-5.55-1.43-8.55,.6-3.39,3.45-5.81,6.76-5.87,2.01-.04,2.97,1.17,1.88,3.08,.8,.84,.93,1.81,.5,2.89-.06,.15,.04,.41,.15,.57,.36,.54,.49,1.1,.33,1.73-.08,.33-.23,.46-.61,.46-2-.02-3.87,.41-5.43,1.77-1.08,.94-1.75,2.12-2.03,3.51-.03,.14-.07,.27-.11,.41Z"/>
      <path d="M21.13,101.97c-1.2-1.14-2.52-1.96-4.1-2.23-.93-.16-1.9-.11-2.85-.18-.22-.02-.49-.1-.63-.26-.35-.37-.64-.8-.96-1.21-.2-.26-.46-.5-.15-.86,.05-.06-.03-.27-.09-.4-.57-1.25-.5-2.38,.52-3.39,.11-.1,.13-.31,.15-.48,.01-.14-.06-.29-.07-.43-.15-1.42,.63-2.2,2.03-1.97,2.4,.39,4.41,1.4,5.49,3.74,.5,1.07,.61,2.21,.58,3.39-.03,1.12,0,2.24,.02,3.36,0,.31,.03,.62,.05,.93Z"/>
      <path d="M78.43,102.01c0-1.79-.05-3.52,0-5.24,.1-3.19,2.08-5.29,5.23-6.06,.41-.1,.83-.19,1.25-.2,1.03-.01,1.61,.6,1.62,1.68,.01,.81,.13,1.19,.54,1.84,.56,.88,.46,1.78,.1,2.7-.08,.21-.03,.46-.05,.69,0,.13-.02,.27-.06,.39-.03,.08-.11,.15-.16,.23-.62,1.07-1.36,1.63-2.79,1.52-2.11-.16-3.99,.71-5.49,2.26-.06,.06-.13,.11-.21,.18Z"/>
      <path d="M67.44,91.28c-.97-.6-1.4-1.39-1.13-2.5,.03-.12-.1-.33-.22-.43-1.05-.9-.94-1.89,.33-2.48,1.8-.83,3.56-.54,5.23,.39,1.32,.73,2.28,1.81,2.82,3.21,1.09,2.84,1.58,5.79,1.62,8.69-.58-.78-1.14-1.73-1.88-2.49-1.66-1.7-3.77-2.21-6.08-1.96-.4,.04-.56-.1-.71-.41-.32-.66-.27-1.32,0-2.02Z"/>
      <path d="M32.05,91.3c.29,.72,.33,1.44-.09,2.12-.09,.14-.33,.29-.5,.28-3.89-.27-6.21,1.03-7.96,4.52-.01,.03-.05,.05-.13,.11,.08-3.2,.55-6.27,1.78-9.19,.52-1.22,1.41-2.15,2.56-2.82,1.56-.91,3.22-1.24,4.97-.62,.26,.09,.51,.21,.74,.37,.89,.62,.94,1.47,.1,2.14-.32,.26-.41,.48-.32,.87,.16,.7-.09,1.3-.62,1.78-.16,.15-.34,.28-.53,.43Z"/>
      <path d="M38.05,111.24c-.29,0-.53,.03-.75,0-.72-.11-1.44-.34-2.16-.36-1.37-.04-2.4,.6-3.04,1.82-.07,.13-.14,.26-.27,.5-1.87-.98-3.73-1.93-5.57-2.93-.15-.08-.25-.39-.26-.59-.07-2.78,1.9-5.13,4.81-5.69,.79-.15,1.61-.21,2.41-.16,1.16,.07,1.58,.58,1.57,1.77,0,.42,.08,.68,.5,.89,.97,.49,1.14,1.38,.96,2.36-.06,.35,.02,.52,.32,.69,.65,.37,1.19,.86,1.49,1.69Z"/>
      <path d="M61.52,111.33c.23-.97,.8-1.45,1.46-1.83,.25-.14,.31-.28,.26-.57-.22-1.15,.07-2.07,1.21-2.61,.12-.06,.22-.28,.22-.42-.02-1.73,.59-2.16,2.39-2.12,1.21,.03,2.38,.27,3.45,.87,1.96,1.11,2.98,2.79,2.97,5.06,0,.2-.12,.5-.28,.58-1.83,.98-3.67,1.93-5.46,2.86-.14-.1-.18-.12-.2-.14-.89-2-2.66-2.54-4.92-1.91-.36,.1-.74,.15-1.1,.23Z"/>
      <path d="M85.53,89.69c-3.21,.32-6.07,1.21-7.4,4.59-.49-1.93-1.06-3.79-1.43-5.68-.54-2.73,.78-5.41,3.19-6.79,1.17-.67,2.23-.22,2.54,1.15,.11,.49,.33,.79,.74,1.06,.79,.52,1.18,1.28,1.16,2.25,0,.18,.11,.42,.24,.55,.78,.79,1.14,1.76,.96,2.87Z"/>
      <path d="M21.35,94.17c-1.27-2.84-3.43-4.11-7.42-4.51-.13-1.06,.18-1.97,.9-2.77,.17-.19,.31-.48,.32-.73,.02-.92,.41-1.65,1.16-2.14,.41-.27,.63-.57,.74-1.06,.23-1.08,.98-1.62,1.88-1.41,.31,.07,.62,.24,.89,.42,2.61,1.72,3.63,4.53,2.78,7.61-.43,1.54-.84,3.08-1.25,4.6Z"/>
      <path d="M23.68,86.69c-.33-2.7-1.86-4.51-4.18-5.74-.68-.36-.8-.6-.32-1.21,.37-.48,1-.76,1.37-1.23,.37-.47,.45-1.24,.88-1.59,.73-.58,1.4-1.1,1.91-1.97,.72-1.22,2.03-1.08,2.82,.11,1.37,2.07,1.57,4.28,.45,6.49-.88,1.75-1.94,3.41-2.94,5.14Z"/>
      <path d="M75.81,86.67c-.91-1.56-1.85-3.07-2.71-4.63-1.29-2.34-1.26-4.67,.2-6.94,.39-.61,.88-1.06,1.67-.93,.77,.12,1.46,.85,1.65,1.61,.05,.18,.23,.4,.4,.47,.94,.37,1.57,.99,1.8,2,.04,.18,.23,.35,.4,.46,.57,.36,1.07,.77,1.29,1.45,.11,.34,.05,.52-.29,.69-1.27,.62-2.38,1.46-3.21,2.63-.69,.97-1.05,2.05-1.2,3.2Z"/>
      <path d="M26.72,85.82c.81-1.79,1.89-3.39,3.13-4.87,.6-.72,1.25-1.4,1.88-2.09,1.06-1.14,2.38-1.46,3.83-.97,.77,.26,1.49,.69,2.2,1.11,.47,.27,.85,.69,.74,1.31-.12,.65-.63,.91-1.21,1.05-.12,.03-.25,.05-.3,.06-.11,.51-.09,1.06-.34,1.42-.26,.36-.78,.54-1.26,.85,0,.46,0,1.07-.53,1.47-.39,.3-.75,.45-1.29,.15-2.04-1.13-4.1-.9-6.13,.1-.24,.12-.48,.27-.71,.4Z"/>
      <path d="M64.06,83.53c-1.31-.37-1.54-.7-1.45-2.06-.31-.1-.64-.16-.93-.3-.79-.39-1.01-1.23-.38-1.8,1.25-1.14,2.69-1.89,4.45-1.6,.54,.09,1.13,.33,1.53,.69,2.29,2.09,4.09,4.56,5.63,7.41-.24-.11-.36-.16-.47-.23-2.22-1.24-4.46-1.52-6.76-.21-.44,.25-1.25-.2-1.45-.83-.11-.32-.11-.68-.17-1.06Z"/>
      <path d="M28.08,79.71c.3-2.47-.57-4.48-2.3-6.14-.26-.25-.24-.44-.07-.71,.31-.47,.78-.65,1.3-.73,.18-.03,.36-.03,.53-.05,.4-1.56,.51-1.64,2.51-1.76,.23-.75,.73-1.25,1.48-1.5,.6-.2,1.09-.01,1.28,.59,.63,2.01,.73,4.85-1.32,6.83-1.15,1.11-2.24,2.27-3.41,3.47Z"/>
      <path d="M69.43,70.33c1.92,.07,2.22,.28,2.48,1.76,.16,.01,.35,0,.52,.05,.38,.13,.79,.23,1.1,.46,.51,.38,.49,.66,.05,1.1-1.65,1.66-2.46,3.62-2.16,6.12-.22-.24-.35-.38-.48-.52-.92-.96-1.78-1.96-2.76-2.86-2.1-1.93-2.23-4.62-1.52-6.98,.2-.66,.71-.85,1.36-.61,.72,.27,1.2,.76,1.41,1.49Z"/>
      <path d="M65.47,76.74c-1.86,.27-3.38,1.05-4.74,2.17-.54,.44-1.7-.04-2.03-.83-.1-.25-.13-.53-.21-.85-.9-.17-1.82-.38-1.84-1.61-.37-.07-.72-.09-1.04-.21-.26-.1-.52-.28-.69-.5-.26-.34-.1-.65,.27-.79,1.27-.48,2.55-.95,3.83-1.39,.2-.07,.49-.05,.68,.05,2.02,1.1,3.92,2.4,5.77,3.95Z"/>
      <path d="M40.95,77.25c0,1.02-.54,1.62-1.52,1.8-.22,.04-.52-.03-.69-.17-1.36-1.09-2.86-1.86-4.67-2.13,.11-.12,.17-.22,.26-.28,1.74-1.2,3.48-2.4,5.24-3.56,.26-.17,.72-.22,1.02-.12,1.24,.4,2.46,.87,3.68,1.33,.48,.18,.58,.64,.17,.94-.34,.25-.79,.33-1.19,.49-.15,.06-.41,.13-.42,.21-.11,1.03-.86,1.28-1.7,1.43-.04,0-.07,.02-.18,.06Z"/>
      <path d="M65.83,74.3c-1.31-.89-2.53-1.86-3.87-2.6-1.21-.67-2.02-1.58-2.53-2.83-.26-.64-.62-1.25-.93-1.88-.25-.52-.06-.87,.51-.79,.63,.09,1.23,.33,1.85,.49,.28,.07,.56,.16,.84,.16,.74,.01,1.43,.2,1.99,.69,.28,.25,.54,.39,.93,.28,.19-.05,.4-.03,.6,0,.85,.12,1.03,.4,.8,1.22-.47,1.72-.66,3.46-.19,5.25Z"/>
      <path d="M33.82,74.14c0-.98,.07-2.11,0-3.23-.05-.74-.26-1.48-.47-2.21-.1-.36-.01-.57,.28-.64,.45-.12,.93-.15,1.39-.23,.2-.03,.44-.03,.58-.15,.7-.57,1.47-.88,2.39-.81,.2,.02,.41-.11,.62-.17,.6-.17,1.18-.41,1.79-.5,.64-.1,.86,.25,.57,.82-.55,1.1-1.1,2.2-1.69,3.28-.15,.27-.41,.51-.68,.69-1.63,1.09-3.28,2.16-4.78,3.15Z"/>
      <path d="M57.34,112.4c1.39-.58,2.77-.96,4.25-.42,.18,.07,.42,0,.63-.03,.61-.12,1.21-.31,1.83-.37,1.35-.13,2.28,.46,2.85,1.8-2.7,1.11-5.49,1.9-8.36,2.46-.4-1.15-.79-2.26-1.2-3.43Z"/>
      <path d="M42.13,112.41c-.4,1.14-.78,2.25-1.19,3.41-2.85-.53-5.62-1.35-8.31-2.42,.26-1.16,1.36-1.94,2.67-1.84,.65,.05,1.29,.26,1.94,.38,.24,.04,.51,.07,.73,0,1.46-.47,2.82-.13,4.16,.47Z"/>
      <path d="M85.06,100.31c-1.38,1.88-5.74,5.97-7.6,7.14,.39-3.83,2.27-7.24,7.16-7.19,.12,0,.24,.02,.43,.04Z"/>
      <path d="M22.08,107.53c-2.86-2.14-5.38-4.49-7.71-7.23,1.67-.14,3.13,.15,4.46,1,2.25,1.43,2.82,3.73,3.24,6.23Z"/>
    </g>
    <text class="cls-2" transform="translate(224.77 113.97) rotate(6) scale(1 1.1)"><tspan class="cls-1" x="0" y="0">藤</tspan><tspan class="cls-4" x="113.74" y="-10.87">乃</tspan><tspan class="cls-5" x="232.58" y="-22.22">井</tspan></text>
    <text class="cls-3" transform="translate(123.38 81.57) rotate(6) scale(1 1.1)"><tspan x="0" y="0">日</tspan><tspan x="29.76" y="-2.84">本</tspan><tspan x="59.52" y="-5.69">橋</tspan></text>
  </g>
</svg>