<?xml version="1.0" encoding="UTF-8"?>
<svg id="_レイヤー_2" data-name="レイヤー 2" xmlns="http://www.w3.org/2000/svg" viewBox="0 0 240.94 332.48">
  <defs>
    <style>
      .cls-1 {
        letter-spacing: .03em;
      }

      .cls-2 {
        letter-spacing: .07em;
      }

      .cls-3 {
        letter-spacing: -.06em;
      }

      .cls-4 {
        letter-spacing: -.06em;
      }

      .cls-5, .cls-6 {
        fill: #d64721;
      }

      .cls-7 {
        letter-spacing: .11em;
      }

      .cls-8 {
        letter-spacing: -.09em;
      }

      .cls-6 {
        font-family: NotoSerifJP-SemiBold-90ms-RKSJ-H, 'Noto Serif JP';
        font-size: 40px;
        glyph-orientation-vertical: 0deg;
        text-orientation: upright;
        writing-mode: tb;
      }
    </style>
  </defs>
  <g id="_レイヤー_1-2" data-name="レイヤー 1">
    <g>
      <text class="cls-6" transform="translate(59.59 -1)"><tspan class="cls-3" x="0" y="0">ト</tspan><tspan class="cls-4" x="0" y="37.44">ッ</tspan><tspan class="cls-8" x="0" y="74.96">プ</tspan><tspan class="cls-1" x="0" y="111.48">へ</tspan><tspan class="cls-2" x="0" y="152.56">戻</tspan><tspan class="cls-7" x="0" y="195.2">る</tspan></text>
      <path class="cls-5" d="M205.61,178.25c7.16,8.13,19.28,6.95,21.21-2.16,22.11-1.53,13.22-17.48,6.85-22.18,6.21-6.52,.9-14.57-11.38-16.02s-19.75,8.28-24.12,9.54c-4.37,1.27-9.25-3.17-10.06-5.94h0c-3.1-10.12-7.3-18.05-12.11-24.31,1.51-1.1,4.78-1.53,9.18-1.3,4.81,10.27,17.05,19.31,25.61,18.48,8.56-.84,12.41-8.89,10.47-14.66,16.59-8.15,5.32-19.6-1.37-21.02-1.03-14.38-9.14-13.83-17.85-10.9-8.71,2.92-14.75,15.76-17.77,23.49-2.76,.52-10.45,.18-14.56-1.05-7.24-6.83-15.27-10.88-22.82-13.49,.91-2.18,4.32-4.37,6.96-6.31,23.1,9.85,40.05-2.05,43.22-10.64,3.32-9-.99-11.83-6.8-15.8,.49-.53,4.75-5.89,.13-11.43-4.62-5.54-10.36-6.39-16.16-4.56-1.48-2.41-11.76-14.01-21.84-2.92-9.03,9.93-5.81,27.82-2.86,39.88-2.19,3.28-12.6,6.62-14,9.83-2.02,4.65-.56,6.33-.56,6.33,1.69,2.61,.08,.01,.08,.01,0,0,6.13,8.88,4.25,12.62-2.07,4.12-12.44,9.87-13.88,18.9-1.44,9.03,3.43,17.07,11.51,16.58,6.86,14.47,18.97,6.85,21.01-.28,.05-.24,3.71,3.55,9.86-.88,6.15-4.43,5.18-13.98-1.85-23.11-7.02-9.13-18.72-10.51-19.12-12.29-.4-1.78-1.12-4.56-2.39-7.48-.84-1.94-.4-3.04,.72-3.82,13.19,4.31,27,13.47,35.34,34.53,1.48,4.07-.32,10.24-3.97,15.34-3.64,5.1-5.43,6.59-11.16,7.55-5.74,.96-18-1.29-22.91,6.87-4.91,8.16,.54,13.37,3.74,14.54-3.51,5.18,4.25,19.36,16.94,10.14,10.43,7.66,15.81-1.76,17.42-11.24,1.61-9.47-3.13-19.52-3.13-19.52,2.47-4.47,5.96-8.99,7.47-9.03,.78,3.5,1.44,7.24,1.96,11.23,1.42,10.86,.62,21.6-1.41,31.61-1.09,4.72-9.32,11.01-12.6,9.98-3.29-1.04-12.06-7.66-20.31-7.82-8.25-.16-14.98,3.12-13.04,11.34-5.86,3.79-6.49,16.2,5.4,16.78,3.78,8.94,11.17,10.86,19.21,2.92,8.04-7.94,8.52-16.27,11.95-18.41,2.34-1.45,4.91-2.46,6.08-2.11-3.05,9.66-6.96,18.22-10.58,24.93-.94,1.73-1.92,3.45-2.94,5.14h0c-3.2,4.18-12.23,6.74-18.02,1.5-5.79-5.23-9.88-10.28-16.74-11.88-6.85-1.6-12.9,4.35-10.32,9.5-5.03,1.47-10.38,13.44,1.84,16.68-.68,4.68,9.61,11.2,17.87,5.66,8.26-5.54,7.91-13.09,11.6-13.36,3.69-.26,8.56-.52,5.13,4.54-5.77,7.52-12.09,14.18-18.27,19.35-3.72,2.92-9.68,1.24-12.71-.37-3.04-1.61-5.62-5.22-7.61-9.21-1.99-3.99-7.14-10.47-12.6-10.88-5.47-.42-10.2,2.23-5.84,6.97-4.81-.76-9.22-.19-11.15,4.92-1.93,5.11,2.73,7.96,5.01,8.4-2.96,3.78,1.11,13.62,10.9,11.78,9.78-1.83,13.42-7.84,18.43-7.88,3.82-.03,7.19,.69,7.84,2.01-.19,.12-.39,.25-.58,.37-7.55,4.72-15.13,8.78-22.75,12.19-1.97,.81-7.95-.3-11.81-1.51-3.9-1.22-7.24-10.61-10.07-18.09-2.84-7.48-10.48-7.73-13.79-1.98-9.08-4.73-13.95,6.9-9.2,12.35-1.33,3.32-1.65,8.79,6.67,12.8,8.33,4.01,16.4-3.37,21.69-2.87,3.92,.37,6.93,1.55,7.68,2.95-9.45,3.59-18.96,6.16-28.55,7.71-12.11-3.97-14.92-7.6-13.73-17.86,1.22-10.51-10.34-14.72-17.24-10.55-8.59-3.71-12.64,4.68-9.36,12.33-3.09,.17-5,5.39,1.38,9.78,6.38,4.4,13.43,3.67,17.18,2.53,3.75-1.14,5.35-2.01,8.32-.43,2.52,1.34,6.09,3.43,5.09,5.28-9.26,.91-18.6,.85-28.03-.18-1.87-.69-7.97-5.15-15.02-10.48-7.08-5.36-14.1-3.43-16.11,6.71-7.99-.28-7.95,13.16,1.78,13.1-2.12,2.37-2.17,7.06,8.23,7.4,10.4,.34,16.58-8.43,20.28-14.12,0,0,0,0,0,0,6.25,.73,12.41,1.1,18.5,1.1,0,0,.01,0,.03,0,1.79,.35,.04,2.79-3.29,5.36-3.33,2.57-9.5-2.17-16.02,1.05-8.14,4.02-6.65,11.57-.53,12.88-1.86,9.28,9.68,9.38,11.52,6.57,0,0,3.14,3.58,6.84-.22,3.69-3.8,1.85-11.42,1.35-15.79-.5-4.37,4.96-8.86,8.36-10.08,0,0-.04,0-.11,0,4.47-.25,8.91-.71,13.33-1.38,0,0-.01,0-.02,.01,.06-.01,.11-.02,.17-.04,.68-.11,1.36-.21,2.04-.32,2.42-.12,1.84,1.46,.3,4.82-1.9,4.14-9.79-.61-15.29,5.02-5.5,5.63-4.93,12.04,3.06,16.76,1.99,9.06,11.02,4.97,11.99,1.18,0,0,5.25,2.48,8.34-3.22,3.09-5.7,.14-10.07-2.96-14.17-3.11-4.1,1.55-11.75,4.49-12.44,0,0-.02,0-.02,0,6.26-1.53,12.5-3.51,18.74-5.96,.94,.52,1.39,2.11-.13,5.1-2.19,4.33-10.03,1.33-14.39,10.09-4.35,8.76-1.39,13.41,3.74,15.62,4.15,9.7,14.6,7.35,15.98-.35,1.72,.92,6.86,.51,7.06-6.89,.2-7.4-6.16-9.98-7.62-14.11-1.46-4.12,1.58-11.58,5.64-13.92,0,0-.02,0-.04,.02,5.55-2.63,11.11-5.65,16.71-9.05,3.03,1.42,1.04,7.92,.98,8.07-1.76,4.67-8.33,.61-12.65,11.29-4.31,10.68,2.33,15.7,7.57,15.89,3.83,8.25,11.97,5.98,13.59-1.22,7.83,3.63,12.97-5.85,10.32-13.49-2.65-7.63-11.03-10.32-13.52-12.24-2.38-1.84-.43-6.81,.76-12.96,7.54-5.56,15.25-13.12,22.23-22.05,1.82,1.6,1.33,5.72,1.09,11.26-.41,.39-8.15,3.98-12.1,14.97-3.95,10.99,3,17.18,8.87,14.75,7.24,15.97,18.32,4.74,18.58-1.54,4.23,.51,12.35-5.57,9.01-14.34-3.34-8.77-14.87-13.04-18.22-15.65-3.35-2.62-3.82-13.97-2-16.58,0,0-.01,0-.03,.01,2.63-3.84,5.11-7.86,7.37-12.05,.76-1.4,1.53-2.86,2.3-4.38,0-.01,0-.01,.02-.03,.72-1.39,2.18-2.23,3.17-1.28,.98,.94,4,5.81,2.42,8.95-4.2,7.58-9.1,16.65-3.42,24.36,5.69,7.71,11.87,9.82,15.28,4.67,12.87,9.51,17.66-4.43,16.22-9.82,2.17-1.07,7.91-8.47,3.22-14.67-4.68-6.19-15.5-8.44-20.33-8.4-4.83,.05-5.96-.35-8.67-5.12-2.71-4.77-2.69-8.65-1.39-12.99,0,0,0,0,0,0,2.98-7.5,5.56-15.82,7.08-24.73,2.16-.62,5.62,1.8,6.76,5.01,1.33,3.78-3.54,12.86-1.34,23.86,2.21,11,16.92,11.26,22.11,6.44,2.56,1.96,7.4,3.28,11.18,.26,3.78-3.03,5.88-9.04,1.08-13.95,6.17-7.23,3.85-14.04-.32-17.41-4.17-3.37-11.23-5.54-17.34-4.71-6.11,.83-10.17,2.79-14.31-.48-4.15-3.26-6.29-7.61-6.4-13.22,0,0,0,.02-.01,.03,.13-4.63-.08-9.37-.71-14.2-.49-3.75-1.1-7.27-1.82-10.61,11.21,3.56,8.26,19.81,15.15,27.62Zm-1.11-24.67c1.42-1.79,7.23-.89,10.88,1.99,3.65,2.88,4.03,5.91,.41,7.58-3.62,1.67-7.13-1.13-9.31-4.5-2.18-3.37-2.78-4.5-1.99-5.07Zm-2.81-47.61c4.23,.23,7.67,3.62,4.27,7.69-3.4,4.06-16.21,1.35-16.92-2.04-.03-2.71,8.42-5.88,12.65-5.65Zm-30.38-37.97c7.24,5.82-9.62,17.79-13.65,12.97-2.45-2.99,6.91-18.85,13.65-12.97Zm-26.12,48.2c2.94,2.55,5.01,8.85,4.62,13.06-.4,4.2-7.1,7.41-8.51,.14-1.42-7.27,2.38-14.95,3.89-13.2Zm20.72,59c-3.09-1.82-2.43-6.78,1.35-9.81,3.78-3.03,5.64-4.06,5.83-2.36,.9,4.61-1.17,14.72-7.18,12.16Zm-10.86,37.73c-1.97-4.34,6.26-9.99,14.9-6.52-1.67,4.36-12.94,10.85-14.9,6.52Zm-19.8,31.54c-1.3-5.48,12.3-6.15,13.25-1.6,.11,2.6-11.85,6.59-13.25,1.6Zm-15.1,23.98c-.87,2.75-13.07,1.01-12.39-3.99,.69-5,14.24,.19,12.39,3.99Zm-41.4,8c.89-3.19,12.65,2.67,13.37,7.9-4.59,.1-14.94-2.93-13.37-7.9Zm-34.55,3.88c1.87-3.32,10.69,1.7,11.3,9.4-2.02,2.34-14.47-3.13-11.3-9.4Zm-29.19,20.11c-.08-3.4,7.41-3.96,14.77-.16-7.3,5.3-14.7,3.56-14.77,.16Zm27.23,21.88c-4.56-2.87,3.21-12.79,8.41-11.17,1.1,.74-3.85,14.04-8.41,11.17Zm32.25,.19c-3.99-.45-2.82-8.28,3.86-12.68,1.31,4.22,.13,13.13-3.86,12.68Zm33.94-17.57c-.52,3.5,.87,12.66-3.5,12.53-3.42-.2-5.13-6.2-.71-11.38,3.43-3.5,4.55-2.48,4.21-1.14Zm31.48-3.89c-.96,6.23-5.98,4.45-6.7,.3-.73-4.14,1.41-11.13,4.13-11.06,2.16,.1,3.53,4.53,2.57,10.76Zm28.1-31.82c2.4-.39,4.47,2.08,4.76,9.17,.28,6.6-5.49,5-6.82,.05-1.04-3.86-1.94-7.5,2.06-9.22Zm21.56-32.93c5.03,2.07,13.24,8.27,7.84,12.97-2.69,1.94-8.69-1.87-9.56-7.91-.52-4.65,.43-5.18,1.72-5.06Zm-4.22-42.35c.04-.2,.07-.36,.1-.46-.03,.16-.07,.31-.1,.46Zm19.88,1.84c2.95-1.16,9.06,5.53,10.61,10.43,1.55,4.9-5.11,4.51-7.94,1.11-2.84-3.4-4.71-9.76-2.67-11.54Z"/>
    </g>
  </g>
</svg>